Coordinates
version=1
nRows=30
nColumns=34
inDegrees=no

Units are S.I. units (second, meters, Newtons, ...)
If the header above contains a line with 'inDegrees', this indicates whether rotational values are in degrees (yes) or radians (no).

endheader
time	pelvis_tilt	pelvis_list	pelvis_rotation	pelvis_tx	pelvis_ty	pelvis_tz	hip_flexion_r	hip_adduction_r	hip_rotation_r	knee_angle_r	ankle_angle_r	subtalar_angle_r	mtp_angle_r	hip_flexion_l	hip_adduction_l	hip_rotation_l	knee_angle_l	ankle_angle_l	subtalar_angle_l	mtp_angle_l	lumbar_extension	lumbar_bending	lumbar_rotation	arm_flex_r	arm_add_r	arm_rot_r	elbow_flex_r	pro_sup_r	arm_flex_l	arm_add_l	arm_rot_l	elbow_flex_l	pro_sup_l
0.42	0.0790139	-0.0119979	0.105775	0.339539	1.16125	-0.253437	-0.157708	0.0689093	-0.168506	0.0288985	0.112535	0.0665285	-0.0169082	0.414386	-0.0226917	-0.113593	0.475913	-0.0726451	-0.0630865	-0.0556771	-0.426977	0.125803	0.0294337	-0.068395	-0.257045	-0.252227	0.843199	1.99493	-0.102778	-0.209355	0.0936138	0.898217	2.05556
0.43	0.0809675	-0.0121994	0.103173	0.348763	1.16049	-0.252725	-0.169219	0.0701642	-0.166869	0.028557	0.119263	0.0702703	-0.0169291	0.410979	-0.0208176	-0.123299	0.437517	-0.0702022	-0.0319244	-0.0556639	-0.43096	0.121935	0.0289727	-0.0662529	-0.258218	-0.248605	0.846393	1.99882	-0.0980082	-0.209816	0.0916013	0.893172	2.06203
0.44	0.0828954	-0.0124014	0.100406	0.358064	1.15968	-0.252013	-0.180349	0.0712638	-0.165452	0.0288011	0.12612	0.0741338	-0.01695	0.406629	-0.0186665	-0.132491	0.399361	-0.0691407	-0.0024352	-0.0556507	-0.434821	0.117778	0.0284554	-0.0644769	-0.259287	-0.24499	0.849324	2.00338	-0.0933163	-0.210199	0.0891261	0.887858	2.06775
0.45	0.0848232	-0.0126142	0.0975044	0.367446	1.15884	-0.251306	-0.191183	0.0722332	-0.164211	0.0295524	0.133017	0.0780093	-0.0169709	0.401287	-0.0162246	-0.140851	0.361408	-0.069271	0.0250256	-0.0556376	-0.438571	0.11337	0.0278447	-0.0630802	-0.260257	-0.241421	0.851963	2.00854	-0.0887592	-0.210514	0.0862321	0.882414	2.07255
0.46	0.0867594	-0.0128541	0.0944849	0.376924	1.15798	-0.250611	-0.201803	0.0731035	-0.163089	0.0307343	0.139864	0.081816	-0.0169918	0.394952	-0.013512	-0.148151	0.323678	-0.0703506	0.0503013	-0.0556245	-0.442202	0.10875	0.0271189	-0.0620727	-0.261147	-0.237895	0.85427	2.01417	-0.0843941	-0.210767	0.0829634	0.876949	2.07635
0.47	0.0886905	-0.0131404	0.0913432	0.386507	1.15708	-0.249928	-0.212273	0.0739069	-0.162022	0.0322663	0.14657	0.0855073	-0.0170127	0.387683	-0.010584	-0.154286	0.286265	-0.072105	0.073431	-0.0556114	-0.445681	0.103953	0.0262752	-0.0614597	-0.261984	-0.234378	0.856206	2.02006	-0.0802771	-0.210968	0.0793507	0.87153	2.07915
0.48	0.0905825	-0.0134938	0.0880574	0.396202	1.15616	-0.249258	-0.222642	0.0746735	-0.160939	0.0340571	0.153046	0.089067	-0.0170336	0.379601	-0.00752709	-0.1593	0.249366	-0.0742433	0.0946309	-0.0555984	-0.448957	0.0990107	0.0253282	-0.0612401	-0.2628	-0.23082	0.857729	2.02595	-0.0764595	-0.211117	0.0754017	0.866186	2.08099
0.49	0.092387	-0.0139332	0.0845955	0.406013	1.1552	-0.248598	-0.232938	0.0754278	-0.159773	0.0360072	0.159208	0.092501	-0.0170545	0.370886	-0.00444867	-0.163368	0.213282	-0.0764705	0.114255	-0.0555855	-0.451971	0.0939443	0.0243028	-0.0614053	-0.263621	-0.227171	0.858807	2.0316	-0.0729852	-0.211213	0.0710976	0.860913	2.08198
0.5	0.0940494	-0.0144734	0.0809251	0.415942	1.1542	-0.247943	-0.243168	0.0761861	-0.158474	0.0380208	0.16498	0.0958302	-0.0170755	0.361767	-0.00146463	-0.166761	0.178422	-0.0784901	0.132738	-0.0555726	-0.454669	0.0887668	0.0232233	-0.0619383	-0.264463	-0.2234	0.859413	2.03682	-0.0698871	-0.211252	0.0663958	0.855687	2.08223
0.51	0.0955179	-0.015123	0.0770242	0.42599	1.15315	-0.247289	-0.253321	0.0769546	-0.157016	0.0400195	0.170292	0.0990825	-0.0170964	0.352503	0.00131218	-0.169801	0.145291	-0.0800014	0.150521	-0.0555597	-0.457004	0.0834816	0.0221036	-0.0628151	-0.265327	-0.219507	0.85953	2.04149	-0.0671853	-0.211232	0.0612384	0.85047	2.08185
0.52	0.0967493	-0.0158844	0.0728885	0.436152	1.15206	-0.246631	-0.263376	0.0777304	-0.155405	0.0419531	0.17509	0.102284	-0.0171174	0.34338	0.00377919	-0.172807	0.114473	-0.0806894	0.16798	-0.055547	-0.458947	0.0780836	0.0209391	-0.064008	-0.266195	-0.215526	0.859149	2.0456	-0.0648857	-0.211152	0.0555648	0.84523	2.08097
0.53	0.0977128	-0.0167549	0.0685357	0.446426	1.15092	-0.245965	-0.273304	0.078503	-0.153672	0.0438038	0.179332	0.105451	-0.0171384	0.334686	0.00584753	-0.176065	0.0866019	-0.0802193	0.185369	-0.0555342	-0.460488	0.0725595	0.0197047	-0.0654905	-0.267032	-0.211525	0.858273	2.04922	-0.0629798	-0.211023	0.0493246	0.839939	2.07967
0.54	0.0983904	-0.0177281	0.0640031	0.456804	1.14973	-0.245285	-0.283076	0.0792555	-0.151864	0.045587	0.182992	0.10858	-0.0171594	0.326694	0.00744392	-0.179806	0.0623021	-0.0782448	0.202776	-0.0555216	-0.461639	0.0668881	0.01836	-0.0672432	-0.267789	-0.207596	0.856914	2.05246	-0.0614461	-0.210861	0.042489	0.834583	2.07806
0.55	0.0987788	-0.0187907	0.0593398	0.467283	1.14851	-0.244589	-0.292673	0.0799648	-0.150029	0.047346	0.18606	0.111651	-0.0171804	0.319622	0.0085137	-0.184196	0.0421032	-0.07444	0.220107	-0.0555089	-0.462428	0.061041	0.0168581	-0.0692585	-0.268412	-0.203846	0.855099	2.05546	-0.0602533	-0.210692	0.0350569	0.829161	2.07619
0.56	0.0988938	-0.0199186	0.0545933	0.47786	1.14725	-0.243872	-0.302083	0.0806011	-0.148204	0.0491478	0.188542	0.114629	-0.0172014	0.313587	0.00902894	-0.189333	0.0263263	-0.0685579	0.237092	-0.0554964	-0.462893	0.0549824	0.0151579	-0.0715436	-0.268849	-0.200374	0.852869	2.05833	-0.0593653	-0.21055	0.0270557	0.823686	2.07412
0.57	0.0987713	-0.021077	0.0497933	0.488538	1.14597	-0.243131	-0.311311	0.0811236	-0.146411	0.0510784	0.190461	0.117482	-0.0172224	0.30855	0.00900214	-0.195236	0.0149723	-0.0605085	0.253305	-0.0554839	-0.463083	0.0486683	0.0132336	-0.0741199	-0.269061	-0.197262	0.850274	2.06111	-0.0587474	-0.210464	0.0185355	0.818177	2.07191
0.58	0.098467	-0.0222216	0.0449397	0.499327	1.14468	-0.242366	-0.320367	0.0814748	-0.144657	0.0532421	0.191854	0.120205	-0.0172434	0.304276	0.00850093	-0.201833	0.00766335	-0.0504376	0.268211	-0.0554714	-0.463044	0.0420444	0.0110802	-0.0770187	-0.269025	-0.194554	0.847376	2.06376	-0.0583736	-0.210466	0.00956013	0.812658	2.06958
0.59	0.0980573	-0.0232968	0.0399998	0.510244	1.14338	-0.241577	-0.329262	0.0815783	-0.142952	0.055762	0.192767	0.122834	-0.0172644	0.300342	0.00765407	-0.208973	0.00371071	-0.0387737	0.281237	-0.055459	-0.46282	0.0350461	0.00871027	-0.0802733	-0.26874	-0.192252	0.844232	2.0662	-0.0582304	-0.210578	0.000197294	0.807148	2.06718
0.6	0.0976414	-0.0242265	0.034919	0.521311	1.14211	-0.240766	-0.338007	0.0813311	-0.14133	0.0587834	0.193246	0.125475	-0.0172855	0.296197	0.00664646	-0.216474	0.00226141	-0.0262225	0.291908	-0.0554467	-0.462461	0.027594	0.006142	-0.0839084	-0.268222	-0.190316	0.840894	2.06834	-0.0583154	-0.210817	-0.00948971	0.801664	2.06471
0.61	0.0973291	-0.0249161	0.0296496	0.532548	1.14086	-0.239936	-0.346625	0.0805986	-0.13987	0.0624771	0.193323	0.128298	-0.0173065	0.291296	0.00570164	-0.224164	0.00245234	-0.0137169	0.299923	-0.0554344	-0.462051	0.0195838	0.00337667	-0.0879304	-0.267497	-0.188667	0.837389	2.07009	-0.0586251	-0.211202	-0.0194427	0.796211	2.06218
0.62	0.0972511	-0.025242	0.0241767	0.543972	1.13969	-0.239098	-0.355142	0.0792203	-0.138713	0.067032	0.192998	0.131526	-0.0173276	0.285208	0.00506085	-0.23187	0.00352496	-0.00235088	0.30516	-0.0554222	-0.461711	0.0108888	0.000381709	-0.0923227	-0.266588	-0.187204	0.83372	2.07143	-0.0591449	-0.211758	-0.0296018	0.790784	2.05958
0.63	0.0975354	-0.025064	0.0185295	0.55558	1.1386	-0.238254	-0.363585	0.0770195	-0.13807	0.0726421	0.192217	0.135403	-0.0173486	0.277682	0.00497327	-0.239399	0.00489451	0.00671682	0.307653	-0.0554101	-0.46159	0.00136209	-0.00292328	-0.0970468	-0.265504	-0.185817	0.829866	2.07236	-0.0598423	-0.212524	-0.0398979	0.785363	2.05689
0.64	0.0982976	-0.0242205	0.0127898	0.56736	1.13764	-0.237407	-0.371955	0.0738182	-0.138207	0.0794864	0.190867	0.140168	-0.0173697	0.268661	0.00567549	-0.246529	0.00616931	0.0123913	0.307559	-0.055398	-0.461839	-0.00915326	-0.00666572	-0.102046	-0.264231	-0.184407	0.825778	2.07292	-0.0606671	-0.213559	-0.0502467	0.779915	2.05411
0.65	0.0996184	-0.0225409	0.00708651	0.579288	1.13683	-0.236559	-0.380223	0.0694519	-0.139436	0.087713	0.188768	0.146023	-0.0173908	0.258264	0.007375	-0.253017	0.00713612	0.0137907	0.305126	-0.055386	-0.462593	-0.0208129	-0.0110104	-0.107256	-0.262726	-0.182902	0.821395	2.07321	-0.0615556	-0.214938	-0.0605481	0.7744	2.05123
0.66	0.101521	-0.0198654	0.00157995	0.591337	1.13618	-0.235714	-0.388313	0.0637839	-0.142077	0.0974322	0.185686	0.153114	-0.0174118	0.24674	0.0102343	-0.258613	0.0077242	0.0103939	0.30066	-0.0553741	-0.46394	-0.0337571	-0.0161396	-0.112615	-0.260916	-0.18126	0.816654	2.07336	-0.0624383	-0.216756	-0.0706892	0.76878	2.04827
0.67	0.103953	-0.0160712	-0.00355826	0.603479	1.13572	-0.234873	-0.396093	0.0567162	-0.14642	0.108722	0.181349	0.161513	-0.0174329	0.234411	0.0143575	-0.263093	0.00796139	0.00215847	0.294502	-0.0553623	-0.465907	-0.0480961	-0.0222268	-0.118079	-0.258709	-0.179484	0.811505	2.07351	-0.0632474	-0.219112	-0.0805537	0.763025	2.04525
0.68	0.106789	-0.0110855	-0.00816726	0.615691	1.13545	-0.234036	-0.403362	0.0481962	-0.152682	0.121643	0.175476	0.171199	-0.017454	0.221622	0.0197785	-0.266278	0.00792939	-0.0104243	0.287014	-0.0553505	-0.468445	-0.0638939	-0.0294036	-0.123628	-0.256003	-0.177615	0.805928	2.07375	-0.0639215	-0.2221	-0.0900334	0.757122	2.04221
0.69	0.109852	-0.00488845	-0.0121216	0.627949	1.13538	-0.233204	-0.409838	0.0382211	-0.160959	0.136264	0.167799	0.182053	-0.0174751	0.208704	0.0264562	-0.268056	0.00772686	-0.0263558	0.278565	-0.0553388	-0.471424	-0.0811532	-0.0377302	-0.129275	-0.252699	-0.17573	0.799946	2.07417	-0.064404	-0.225797	-0.0990396	0.75108	2.0392
0.7	0.112914	0.0024787	-0.0153512	0.640236	1.13551	-0.232375	-0.415159	0.0268333	-0.171193	0.152685	0.158091	0.193841	-0.0174962	0.195954	0.0342814	-0.268396	0.00744522	-0.044245	0.269528	-0.0553272	-0.474646	-0.099811	-0.04717	-0.135063	-0.248727	-0.173922	0.793626	2.07474	-0.0646372	-0.230249	-0.107512	0.744932	2.03629
0.71	0.115711	0.010907	-0.0178565	0.652534	1.13583	-0.23155	-0.418903	0.0141107	-0.18314	0.171054	0.146179	0.206209	-0.0175173	0.183612	0.0430893	-0.267357	0.00715579	-0.0624975	0.260271	-0.0553156	-0.477864	-0.119744	-0.0575711	-0.141061	-0.244049	-0.172288	0.787084	2.07537	-0.0645557	-0.235459	-0.115423	0.738727	2.03354
